<svg xmlns="http://www.w3.org/2000/svg" viewBox="0 0 106 22"><defs><style>.a{fill:#ee2a49;}</style></defs><path d="M25.1,19.1V3.6h2l5.9,13,6-13h1.7V19.1H39V6.9L33.5,19H32.2L26.8,6.9V19H25.1ZM44.9,9.7a5.55,5.55,0,0,1,7.9,0,5.35,5.35,0,0,1,1.6,4A5.55,5.55,0,0,1,49,19.3h-.1A5.52,5.52,0,0,1,45,17.7a5.77,5.77,0,0,1-.1-8Zm3.9-.1A3.63,3.63,0,0,0,46,10.8a4.3,4.3,0,0,0,0,5.8,3.87,3.87,0,0,0,5.6,0h0a4.3,4.3,0,0,0,0-5.8,3.63,3.63,0,0,0-2.8-1.2ZM62.3,8.1A5.45,5.45,0,0,1,67,10.8a5.55,5.55,0,0,1,.7,2.8,5.85,5.85,0,0,1-1.5,4,4.73,4.73,0,0,1-3.8,1.6,5.45,5.45,0,0,1-2.2-.5,3.39,3.39,0,0,1-1.5-1.4V19H57.1V3.6h1.6V10a4,4,0,0,1,1.5-1.4,4.34,4.34,0,0,1,2.1-.5ZM62,17.7a4,4,0,0,0,2.9-1.2,4.3,4.3,0,0,0,0-5.8A4.36,4.36,0,0,0,62,9.6a4.2,4.2,0,0,0-2.1.6,3.16,3.16,0,0,0-1.4,1.4v4.2A4,4,0,0,0,60,17.2a3.51,3.51,0,0,0,2,.5ZM70.3,3.6H72V17.5h7.8V19H70.3ZM89.9,8.3h1.6V19H89.9V17.3a4,4,0,0,1-1.5,1.4,4.42,4.42,0,0,1-2.2.5,5.31,5.31,0,0,1-5.3-5.6,5.85,5.85,0,0,1,1.5-4A5.07,5.07,0,0,1,86.2,8a5.45,5.45,0,0,1,2.2.5,3.39,3.39,0,0,1,1.5,1.4Zm-3.5,9.5a3.61,3.61,0,0,0,2-.6,4,4,0,0,0,1.5-1.4V11.6a3.16,3.16,0,0,0-1.4-1.4,3.7,3.7,0,0,0-2.1-.6,4.14,4.14,0,0,0-4.1,4.2,3.78,3.78,0,0,0,1.2,2.8,4.45,4.45,0,0,0,2.9,1.2ZM100,8.1a5.45,5.45,0,0,1,4.7,2.7,5.55,5.55,0,0,1,.7,2.8,5.85,5.85,0,0,1-1.5,4,4.73,4.73,0,0,1-3.8,1.6,5.45,5.45,0,0,1-2.2-.5,3.39,3.39,0,0,1-1.5-1.4V19H94.8V3.6h1.6V10a4,4,0,0,1,1.5-1.4A4.34,4.34,0,0,1,100,8.1Zm-.3,9.7a4,4,0,0,0,2.9-1.2,4.3,4.3,0,0,0,0-5.8,4,4,0,0,0-2.9-1.2,4.2,4.2,0,0,0-2.1.6,3.16,3.16,0,0,0-1.4,1.4v4.2a4,4,0,0,0,1.5,1.4,4.66,4.66,0,0,0,2,.6Z"/><path class="a" d="M19.3,6.8l-9,5.1a.91.91,0,0,1-1,0L.3,6.8c0-.1-.2,0-.3.1v9.4a.52.52,0,0,0,.2.4l3.3,1.9a.19.19,0,0,0,.3-.1V13.2A.22.22,0,0,1,4,13h.1l2.2,1.3a.82.82,0,0,1,.4.6v5.4a.52.52,0,0,0,.2.4l2,1.1a1.36,1.36,0,0,0,1.5,0l2-1.1c.2-.1.2-.2.2-.4V14.9a.55.55,0,0,1,.4-.6L15.2,13a.19.19,0,0,1,.3.1v5.3a.22.22,0,0,0,.2.2h.1l3.3-1.9c.2-.1.2-.2.2-.4V7a.22.22,0,0,0-.2-.2ZM12.2,4.6l-1.7-1a1.71,1.71,0,0,0-1.4,0l-1.7,1a.48.48,0,0,0-.2.6q0,.15.3.3l1.7,1a1.7,1.7,0,0,0,1.4,0l1.7-1a.6.6,0,0,0,.3-.6,1.38,1.38,0,0,0-.4-.3m5.9,0-1.7-1a1.71,1.71,0,0,0-1.4,0l-1.7,1a.48.48,0,0,0-.2.6q0,.15.3.3l1.7,1a1.7,1.7,0,0,0,1.4,0l1.7-1a.6.6,0,0,0,.3-.6,1.38,1.38,0,0,1-.4-.3M6.3,4.6l-1.7-1a1.71,1.71,0,0,0-1.4,0l-1.7,1a.48.48,0,0,0-.2.6q0,.15.3.3l1.7,1a1.7,1.7,0,0,0,1.4,0l1.7-1a.6.6,0,0,0,.3-.6,1.38,1.38,0,0,0-.4-.3m5.9-3.4L10.5.2A1.71,1.71,0,0,0,9.1.2l-1.7,1a.37.37,0,0,0-.2.5c0,.2.1.3.2.3L9.1,3a1.7,1.7,0,0,0,1.4,0l1.7-1a.6.6,0,0,0,.3-.6c0-.1-.1-.2-.3-.2m0,6.9-1.7-1a1.71,1.71,0,0,0-1.4,0l-1.7,1a.37.37,0,0,0-.2.5q0,.15.3.3l1.7,1a1.7,1.7,0,0,0,1.4,0l1.7-1a.6.6,0,0,0,.3-.6.52.52,0,0,0-.4-.2"/></svg>